<svg width="500" height="120" viewBox="0 0 500 120" fill="none" xmlns="http://www.w3.org/2000/svg">
<path d="M58.0848 118.161C26.0526 118.161 0 92.0993 0 60.076C0 45.1447 5.67089 30.9542 15.9632 20.1151L16.1484 19.9211L44.1324 68.181C47.0076 73.1375 52.361 76.2243 58.1024 76.2243C60.9246 76.2243 63.7204 75.4747 66.181 74.0459C73.8716 69.5833 76.4997 59.6879 72.0459 51.9885C69.1708 47.032 63.8174 43.9452 58.076 43.9452C55.2537 43.9452 52.458 44.6949 49.9974 46.1236C48.3658 47.0761 46.9017 48.3108 45.667 49.8101L45.4818 50.0306L24.0329 13.0419L24.1829 12.9361C34.1047 5.78354 45.8346 2 58.0848 2C90.1081 2 116.161 28.0526 116.161 60.076C116.161 92.0993 90.1081 118.161 58.0848 118.161ZM15.5222 43.6983C13.4937 48.937 12.4707 54.4403 12.4707 60.076C12.4707 85.229 32.9318 105.69 58.0848 105.69C83.2378 105.69 103.69 85.229 103.69 60.076C103.69 34.9229 83.229 14.4707 58.0848 14.4707C52.2551 14.4707 46.5666 15.5731 41.1603 17.7339L49.8386 32.6916C52.5021 31.8891 55.2714 31.4745 58.0671 31.4745C68.2359 31.4745 77.7256 36.9338 82.8233 45.7179C90.7343 59.3528 86.0777 76.8946 72.4252 84.8145C68.0684 87.3368 63.1118 88.6774 58.1024 88.6774C47.9248 88.6774 38.4351 83.2181 33.3374 74.4252L15.5222 43.6983Z" fill="#E53138"/>
<path d="M472.422 94.9215C457.217 94.9215 444.852 82.8918 444.852 68.1016C444.852 53.3114 457.226 41.2817 472.422 41.2817C487.617 41.2817 499.991 53.3114 499.991 68.1016C499.991 82.8918 487.617 94.9215 472.422 94.9215ZM472.422 53.479C464.449 53.479 457.967 60.0407 457.967 68.1016C457.967 76.1626 464.449 82.7242 472.422 82.7242C480.394 82.7242 486.877 76.1626 486.877 68.1016C486.877 60.0407 480.394 53.479 472.422 53.479Z" fill="#E53138"/>
<path d="M262.704 94.9216C246.406 94.9216 234.112 83.3946 234.112 68.1017C234.112 52.8088 246.485 41.2729 261.69 41.2729C276.895 41.2729 289.26 53.3115 289.26 68.1017C289.26 69.5921 289.136 71.0474 288.907 72.4408L288.88 72.6084H247.941C249.943 78.9496 255.446 82.7243 262.713 82.7243C266.841 82.7243 270.774 80.9339 273.517 77.803L273.605 77.706L286.208 82.1422L286.076 82.3539C280.996 90.2208 272.265 94.9216 262.722 94.9216H262.704ZM275.351 63.3303C273.349 57.4301 267.89 53.479 261.681 53.479C255.472 53.479 250.013 57.4301 248.011 63.3303H275.343H275.351Z" fill="#E53138"/>
<path d="M167.596 94.9216C152.038 94.9216 139.382 82.8831 139.382 68.0929V25.2305H152.347V47.2614C156.757 43.3456 162.233 41.2818 168.195 41.2818C182.633 41.2818 194.371 53.3115 194.371 68.1105C194.371 82.9095 182.359 94.9304 167.596 94.9304V94.9216ZM166.802 53.4791C158.847 53.4791 152.356 60.0319 152.347 68.0929C152.347 76.1715 158.829 82.7243 166.802 82.7243C174.775 82.7243 181.257 76.1627 181.257 68.1017C181.257 60.0408 174.775 53.4791 166.802 53.4791Z" fill="#E53138"/>
<path d="M412.238 94.9216C396.68 94.9216 384.024 82.8831 384.024 68.0929V25.2305H396.989V47.2614C401.408 43.3456 406.876 41.2818 412.838 41.2818C427.275 41.2818 439.014 53.3115 439.014 68.1105C439.014 82.9095 427.002 94.9304 412.238 94.9304V94.9216ZM411.444 53.4791C403.489 53.4791 396.998 60.0319 396.989 68.0929C396.989 76.1715 403.471 82.7243 411.444 82.7243C419.417 82.7243 425.899 76.1627 425.899 68.1017C425.899 60.0408 419.417 53.4791 411.444 53.4791Z" fill="#E53138"/>
<path d="M201.612 93.9249V59.5203C201.612 48.8929 208.288 42.2871 219.022 42.2871H231.554V54.7401H222.567C218.422 54.7401 214.594 55.6133 214.594 61.9368V93.9249H201.603H201.612Z" fill="#E53138"/>
<path d="M363.678 93.9251V66.92C363.678 57.7478 358.025 54.4934 353.192 54.4934C351.419 54.4934 342.564 55.0755 342.564 66.5319V93.9251H329.653V66.5319C329.653 55.0755 320.798 54.4934 319.025 54.4934C314.184 54.4934 308.539 57.7478 308.539 66.92V93.9251H295.918V63.3393C295.918 49.5898 307.331 41.3789 318.364 41.3789C325.314 41.3789 331.928 44.4657 336.117 49.6515C340.298 44.4657 346.921 41.3789 353.871 41.3789C364.904 41.3789 376.325 49.5986 376.325 63.3393V93.9251H363.696H363.678Z" fill="#E53138"/>
</svg>
